<svg width="83" height="83" viewBox="0 0 83 83" fill="none" xmlns="http://www.w3.org/2000/svg">
<circle cx="41.5" cy="41.5" r="41.5" fill="#E0E4E9"/>
<path d="M61.2537 16L9 35.8598C12.0458 46.168 21.2211 68.7703 33.5564 76.7143C45.8917 84.6582 61.9199 69.9997 68.3922 61.6775C72.5801 49.0051 77.7007 26.1001 64.6802 35.8598C51.6596 45.6195 52.5923 36.3327 54.6863 30.4693L61.2537 16Z" fill="black"/>
<path d="M36.3061 14.2134C36.2494 14.2473 36.1919 14.2815 36.1336 14.3161C34.7493 15.1378 32.9346 16.1485 31.088 17.1577C29.7159 17.9076 28.3299 18.6548 27.0932 19.3215C26.6659 19.5518 26.2565 19.7725 25.8716 19.9804C24.388 20.7818 23.2401 21.4082 22.8753 21.6468L23.261 22.5525L36.3261 19.5525L21.2099 56.9567L21.2098 56.9566L21.2059 56.9669C20.9281 57.7005 20.1906 58.3849 18.8247 58.962C17.4661 59.5359 15.5612 59.9703 13.0877 60.2505L12.7725 60.2862L12.6705 60.5865C12.5565 60.9222 12.5 61.271 12.5 61.6304C12.5 61.9707 12.5579 62.3076 12.6705 62.639L12.79 62.991L13.1615 62.978C14.4388 62.9332 15.1841 63.1827 15.6318 63.5093C16.0733 63.8313 16.295 64.279 16.4192 64.7871C16.5072 65.1477 16.5373 65.478 16.5675 65.8097C16.5833 65.9826 16.599 66.1558 16.6231 66.3339C16.6534 66.5583 16.7032 66.8277 16.8303 67.048C16.899 67.1669 16.9982 67.2862 17.1412 67.3737C17.2864 67.4625 17.4466 67.5 17.6067 67.5C17.7437 67.5 17.8922 67.4517 17.9839 67.4203C18.1002 67.3807 18.241 67.3253 18.3989 67.2597C18.7154 67.1282 19.1329 66.9418 19.6214 66.7235L19.6669 66.7031C20.6433 66.2668 21.9185 65.6969 23.3341 65.133C26.2329 63.9783 29.6297 62.8878 32.201 62.978L32.6036 62.9921L32.703 62.6017C32.7973 62.2314 32.8625 61.9141 32.8625 61.7011C32.8625 61.3852 32.8047 61.023 32.703 60.6239L32.6187 60.2926L32.2794 60.251C32.0809 60.2267 31.74 60.1908 31.2611 60.1438C30.8202 60.0983 30.4796 60.0637 30.2396 60.04C29.9915 59.9919 29.6445 59.9335 29.2021 59.8649C28.7868 59.797 28.4511 59.7402 28.1943 59.6946C27.9572 59.6252 27.6676 59.5457 27.3266 59.4563C27.0171 59.3469 26.7961 59.2452 26.6496 59.1553C26.4782 59.0502 26.2924 58.9219 26.0919 58.7694C25.9631 58.6567 25.8718 58.5361 25.81 58.4077C25.7617 58.257 25.7365 58.0956 25.7365 57.9212V57.5937L31.0866 44.2421C32.3741 44.1629 33.5145 43.77 34.5049 43.3477C34.8764 43.1892 35.2369 43.022 35.5732 42.866C35.7188 42.7984 35.8599 42.733 35.9954 42.6713C36.4547 42.4621 36.8569 42.2922 37.2207 42.1868C37.5841 42.0815 37.8755 42.0511 38.119 42.0918C38.3497 42.1303 38.5716 42.2379 38.7956 42.4756C39.2761 42.9853 39.7453 44.0673 40.149 46.1808L40.2266 46.587H40.6401C42.128 46.587 43.436 45.9096 44.504 45.303C44.6388 45.2264 44.7688 45.1515 44.8948 45.0789C45.2846 44.8544 45.6358 44.652 45.9714 44.4911C46.2615 44.3519 46.5075 44.2606 46.7192 44.216L51.7854 56.9737C51.8683 57.3511 51.9087 57.7137 51.9087 58.0625C51.9087 58.2007 51.8494 58.3688 51.6211 58.5729C51.3844 58.7845 50.9956 59.0052 50.418 59.2185C49.2654 59.6441 47.4973 59.9923 45.0857 60.2501L44.7681 60.2841L44.6654 60.5865C44.5514 60.9222 44.4949 61.271 44.4949 61.6304C44.4949 61.9707 44.5528 62.3076 44.6654 62.639L44.785 62.9912L45.1567 62.9779C47.6406 62.8893 49.7431 63.9505 51.6272 65.0957C51.9388 65.2852 52.2489 65.4798 52.5547 65.6717C53.1526 66.0469 53.7337 66.4116 54.2767 66.7064C55.1003 67.1536 55.9371 67.5 56.7635 67.5C57.5362 67.5 58.3831 67.1521 59.2367 66.7112C59.7747 66.4333 60.3621 66.092 60.9721 65.7375C61.3333 65.5276 61.7024 65.3131 62.0739 65.1044C64.1205 63.9548 66.396 62.8892 68.8379 62.9779L69.1872 62.9906L69.3191 62.667C69.442 62.3652 69.5 62.0412 69.5 61.7011C69.5 61.3852 69.4422 61.023 69.3406 60.6239L69.2547 60.2868L68.9088 60.2501C68.0308 60.1569 67.2864 60.0641 66.6742 59.9719C66.0899 59.8569 65.3857 59.6957 64.56 59.4874C63.7933 59.2653 63.1696 58.9717 62.6771 58.6156C62.194 58.2432 61.8591 57.81 61.6562 57.3158L41.109 1.82638L40.9881 1.5H40.6401C40.3865 1.5 40.1728 1.61364 40.0126 1.73702C39.8494 1.86281 39.6996 2.03075 39.5625 2.21619C39.2877 2.58792 39.0127 3.10076 38.747 3.69843C38.2131 4.89934 37.6806 6.52638 37.2486 8.26932C36.8162 10.0138 36.4801 11.8928 36.3458 13.6002C36.3296 13.8064 36.3163 14.011 36.3061 14.2134ZM38.9468 24.5857L44.6931 39.1913C44.3625 38.8 44.0045 38.3447 43.6241 37.8608C43.4569 37.6481 43.2854 37.4299 43.1099 37.2092C42.4545 36.3848 41.7502 35.5334 41.0626 34.8865C40.7182 34.5625 40.3646 34.2769 40.0105 34.07C39.6595 33.8649 39.2745 33.7174 38.8766 33.7174C37.8265 33.7174 36.9816 34.2166 36.2928 34.8883C35.6111 35.5531 35.0448 36.423 34.5449 37.2423C34.4359 37.421 34.3304 37.5964 34.2276 37.7675C33.845 38.4042 33.4991 38.9797 33.1427 39.4321C33.0824 39.5087 33.0239 39.5789 32.9672 39.643L38.9468 24.5857Z" fill="#ADFF00" stroke="black"/>
</svg>
